<svg id="visual" viewBox="0 0 900 600" width="900" height="600" xmlns="http://www.w3.org/2000/svg" xmlns:xlink="http://www.w3.org/1999/xlink" version="1.1"><rect x="0" y="0" width="900" height="600" fill="#ffffff"></rect><path d="M0 410L450 363L900 352L900 0L450 0L0 0Z" fill="#86adeb"></path><path d="M0 341L450 292L900 314L900 0L450 0L0 0Z" fill="#709fee"></path><path d="M0 221L450 224L900 259L900 0L450 0L0 0Z" fill="#5a91f0"></path><path d="M0 206L450 176L900 194L900 0L450 0L0 0Z" fill="#4483f1"></path><path d="M0 141L450 145L900 106L900 0L450 0L0 0Z" fill="#2b73f1"></path><path d="M0 90L450 67L900 80L900 0L450 0L0 0Z" fill="#0a63f0"></path></svg>